<svg xmlns="http://www.w3.org/2000/svg" xmlns:xlink="http://www.w3.org/1999/xlink" width="500" zoomAndPan="magnify" viewBox="0 0 375 374.999991" height="500" preserveAspectRatio="xMidYMid meet" version="1.0"><defs><clipPath id="f2c1dfcb35"><path d="M 219 35.242188 L 371.945312 35.242188 L 371.945312 339.742188 L 219 339.742188 Z M 219 35.242188 " clip-rule="nonzero"/></clipPath><clipPath id="b6f434ee3c"><path d="M 3 35.242188 L 156 35.242188 L 156 339.742188 L 3 339.742188 Z M 3 35.242188 " clip-rule="nonzero"/></clipPath></defs><g clip-path="url(#f2c1dfcb35)"><path fill="#29acff" d="M 219.507812 35.207031 L 219.507812 97.480469 L 309.453125 187.449219 L 219.507812 277.417969 L 219.507812 339.691406 L 371.710938 187.449219 Z M 219.507812 35.207031 " fill-opacity="1" fill-rule="nonzero"/></g><g clip-path="url(#b6f434ee3c)"><path fill="#29acff" d="M 155.460938 97.480469 L 155.460938 35.207031 L 3.257812 187.449219 L 155.460938 339.691406 L 155.460938 277.417969 L 65.515625 187.449219 Z M 155.460938 97.480469 " fill-opacity="1" fill-rule="nonzero"/></g><path fill="#29acff" d="M 113.148438 187.449219 L 187.480469 113.097656 L 261.8125 187.449219 L 187.480469 261.800781 Z M 113.148438 187.449219 " fill-opacity="1" fill-rule="nonzero"/></svg>